{"title":"Penthouse.Hot.Horny.Hookups.XXX.720p.WEBRiP.WMV-TBP","uid":11729554,"size":9180629118,"categoryP":"porn","categoryS":"movies","magnet":"?xt=urn:btih:ca0329ec793b076a7082a8d8c861ec86c68e4d48&amp;dn=Penthouse.Hot.Horny.Hookups.XXX.720p.WEBRiP.WMV-TBP&amp;tr=udp%3A%2F%2Ftracker.openbittorrent.com%3A80&amp;tr=udp%3A%2F%2Fopen.demonii.com%3A1337&amp;tr=udp%3A%2F%2Ftracker.coppersurfer.tk%3A6969&amp;tr=udp%3A%2F%2Fexodus.desync.com%3A6969","seeders":0,"leechers":1,"uploader":"sceneline","files":65,"time":1425235808,"description":" &lt;a href=&quot;https://www.scenetime&quot; rel=&quot;nofollow&quot; target=&quot;_NEW&quot;&gt;https://www.scenetime&lt;/a&gt; dot com\n\nSign up is OPEN - for time being. Come and have fun.\n\nplease seed back as long as possible.\n\nfor info read NFO file\n\n================== NFO====================\n                  THE.BEST.PORN.GIVES \n\n\nPenthouse.Hot.Horny.Hookups.XXX.720p.WEBRiP.WMV-TBP \n\nWEBSITE     : http://penthouse.com/vodhbs/?who=r%2CSew283d12IeNv%2F%2FNapWw26VwOz2PGwYjTGeih6QtcgV21N86THX5dLaT26IZbf02WGlRLk8PkW0POKrJEp2Slc3XAnJP6lS6yitvd1elovGewS4eptTYYamlsMjigDe53YRq0%2FoOXEVJWiz5%2F1xBEQ--&amp;p=search_results&amp;search=hot+horny+hookups&amp;x=0&amp;y=0\nTYPE        : WMV \nSIZE        : 61 x 150MB \n\nGeneral\nComplete name                            : tbp.phothh.wmv\nFormat                                   : Windows Media\nFile size                                : 8.48 GiB\nDuration                                 : 2h 29mn\nOverall bit rate                         : 8 102 Kbps\nMaximum Overall bit rate                 : 32.0 Kbps\nEncoded date                             : UTC 1970-01-01 00:00:00.000\nWM/EncodingSettings                      : Lavf56.4.101\n\nVideo\nID                                       : 1\nFormat                                   : WMV2\nCodec ID                                 : WMV2\nCodec ID/Info                            : Windows Media Video 8\nDescription of the codec                 : wmv2\nDuration                                 : 2h 29mn\nBit rate                                 : 7 740 Kbps\nWidth                                    : 1 280 pixels\nHeight                                   : 720 pixels\nDisplay aspect ratio                     : 16:9\nFrame rate                               : 29.970 fps\nBit depth                                : 8 bits\nBits/(Pixel*Frame)                       : 0.280\nStream size                              : 8.10 GiB (96%)\n\nAudio\nID                                       : 2\nFormat                                   : WMA\nFormat version                           : Version 2\nCodec ID                                 : 161\nCodec ID/Info                            : Windows Media Audio\nDescription of the codec                 : Windows Media Audio V8\nDuration                                 : 2h 29mn\nBit rate                                 : 32.0 Kbps\nChannel(s)                               : 1 channel\nSampling rate                            : 48.0 KHz\nBit depth                                : 16 bits\nStream size                              : 34.3 MiB (0%)\n\n\nREVIEW-URL  :  \n\n  Greetz to our good friends in GUSH \n   And the others which make this fun","torrent":{"xt":"urn:btih:ca0329ec793b076a7082a8d8c861ec86c68e4d48","amp;dn":"Penthouse.Hot.Horny.Hookups.XXX.720p.WEBRiP.WMV-TBP","amp;tr":["udp%3A%2F%2Ftracker.openbittorrent.com%3A80","udp%3A%2F%2Fopen.demonii.com%3A1337","udp%3A%2F%2Ftracker.coppersurfer.tk%3A6969","udp%3A%2F%2Fexodus.desync.com%3A6969"],"infoHash":"ca0329ec793b076a7082a8d8c861ec86c68e4d48","infoHashBuffer":{"type":"Buffer","data":[202,3,41,236,121,59,7,106,112,130,168,216,200,97,236,134,198,142,77,72]},"announce":[],"urlList":[]}}